<mxfile host="app.diagrams.net" modified="2021-07-10T03:12:02.927Z" agent="5.0 (Windows NT 10.0; Win64; x64) AppleWebKit/537.36 (KHTML, like Gecko) Chrome/91.0.4472.124 Safari/537.36" etag="PHytP37xoSIKrDqwDyyR" version="14.8.5" type="github">
  <diagram id="EgL5L0g_RCFHcABXxVB2" name="Page-1">
    <mxGraphModel dx="865" dy="456" grid="1" gridSize="10" guides="1" tooltips="1" connect="1" arrows="1" fold="1" page="1" pageScale="1" pageWidth="827" pageHeight="1169" math="0" shadow="0">
      <root>
        <mxCell id="0" />
        <mxCell id="1" parent="0" />
        <mxCell id="HgFRqjjcvy6R8NWgC-Xr-1" value="" style="endArrow=classic;html=1;entryX=0.027;entryY=0.673;entryDx=0;entryDy=0;entryPerimeter=0;" edge="1" parent="1" target="HgFRqjjcvy6R8NWgC-Xr-3">
          <mxGeometry width="50" height="50" relative="1" as="geometry">
            <mxPoint x="121" y="259.5" as="sourcePoint" />
            <mxPoint x="221" y="190" as="targetPoint" />
          </mxGeometry>
        </mxCell>
        <mxCell id="HgFRqjjcvy6R8NWgC-Xr-2" value="&lt;font style=&quot;vertical-align: inherit&quot;&gt;&lt;font style=&quot;vertical-align: inherit&quot;&gt;用户&lt;/font&gt;&lt;/font&gt;" style="shape=umlActor;verticalLabelPosition=bottom;verticalAlign=top;html=1;outlineConnect=0;" vertex="1" parent="1">
          <mxGeometry x="81" y="230" width="30" height="60" as="geometry" />
        </mxCell>
        <mxCell id="HgFRqjjcvy6R8NWgC-Xr-3" value="&lt;font style=&quot;vertical-align: inherit&quot;&gt;&lt;font style=&quot;vertical-align: inherit&quot;&gt;注册&lt;/font&gt;&lt;/font&gt;" style="ellipse;whiteSpace=wrap;html=1;" vertex="1" parent="1">
          <mxGeometry x="220" y="130" width="106" height="60" as="geometry" />
        </mxCell>
        <mxCell id="HgFRqjjcvy6R8NWgC-Xr-4" value="&lt;font style=&quot;vertical-align: inherit&quot;&gt;&lt;font style=&quot;vertical-align: inherit&quot;&gt;&lt;font style=&quot;vertical-align: inherit&quot;&gt;&lt;font style=&quot;vertical-align: inherit&quot;&gt;登录&lt;/font&gt;&lt;/font&gt;&lt;/font&gt;&lt;/font&gt;" style="ellipse;whiteSpace=wrap;html=1;" vertex="1" parent="1">
          <mxGeometry x="360" y="179" width="106" height="60" as="geometry" />
        </mxCell>
        <mxCell id="HgFRqjjcvy6R8NWgC-Xr-5" value="" style="endArrow=classic;html=1;entryX=0;entryY=0.5;entryDx=0;entryDy=0;" edge="1" parent="1" target="HgFRqjjcvy6R8NWgC-Xr-4">
          <mxGeometry width="50" height="50" relative="1" as="geometry">
            <mxPoint x="121" y="270" as="sourcePoint" />
            <mxPoint x="231" y="250" as="targetPoint" />
          </mxGeometry>
        </mxCell>
        <mxCell id="HgFRqjjcvy6R8NWgC-Xr-6" value="&lt;font style=&quot;vertical-align: inherit&quot;&gt;&lt;font style=&quot;vertical-align: inherit&quot;&gt;加入购物车&lt;/font&gt;&lt;/font&gt;" style="ellipse;whiteSpace=wrap;html=1;" vertex="1" parent="1">
          <mxGeometry x="370" y="330" width="106" height="60" as="geometry" />
        </mxCell>
        <mxCell id="HgFRqjjcvy6R8NWgC-Xr-7" value="&lt;font style=&quot;vertical-align: inherit&quot;&gt;&lt;font style=&quot;vertical-align: inherit&quot;&gt;付款&lt;/font&gt;&lt;/font&gt;" style="ellipse;whiteSpace=wrap;html=1;" vertex="1" parent="1">
          <mxGeometry x="235" y="390" width="106" height="62" as="geometry" />
        </mxCell>
        <mxCell id="HgFRqjjcvy6R8NWgC-Xr-9" value="" style="endArrow=classic;html=1;entryX=0.013;entryY=0.274;entryDx=0;entryDy=0;entryPerimeter=0;" edge="1" parent="1" target="HgFRqjjcvy6R8NWgC-Xr-7">
          <mxGeometry width="50" height="50" relative="1" as="geometry">
            <mxPoint x="120" y="290" as="sourcePoint" />
            <mxPoint x="230" y="420" as="targetPoint" />
          </mxGeometry>
        </mxCell>
        <mxCell id="HgFRqjjcvy6R8NWgC-Xr-10" value="&lt;font style=&quot;vertical-align: inherit&quot;&gt;&lt;font style=&quot;vertical-align: inherit&quot;&gt;商家&lt;/font&gt;&lt;/font&gt;" style="shape=umlActor;verticalLabelPosition=bottom;verticalAlign=top;html=1;outlineConnect=0;" vertex="1" parent="1">
          <mxGeometry x="701" y="239" width="30" height="60" as="geometry" />
        </mxCell>
        <mxCell id="HgFRqjjcvy6R8NWgC-Xr-14" value="" style="endArrow=classic;html=1;entryX=1;entryY=0.5;entryDx=0;entryDy=0;" edge="1" parent="1" target="HgFRqjjcvy6R8NWgC-Xr-15">
          <mxGeometry width="50" height="50" relative="1" as="geometry">
            <mxPoint x="690" y="259" as="sourcePoint" />
            <mxPoint x="590" y="200" as="targetPoint" />
          </mxGeometry>
        </mxCell>
        <mxCell id="HgFRqjjcvy6R8NWgC-Xr-15" value="&lt;font style=&quot;vertical-align: inherit&quot;&gt;&lt;font style=&quot;vertical-align: inherit&quot;&gt;添加商品&lt;/font&gt;&lt;/font&gt;" style="ellipse;whiteSpace=wrap;html=1;" vertex="1" parent="1">
          <mxGeometry x="540" y="250" width="100" height="60" as="geometry" />
        </mxCell>
        <mxCell id="HgFRqjjcvy6R8NWgC-Xr-18" value="" style="endArrow=classic;html=1;entryX=0;entryY=0.5;entryDx=0;entryDy=0;exitX=0.987;exitY=0.597;exitDx=0;exitDy=0;exitPerimeter=0;" edge="1" parent="1" source="HgFRqjjcvy6R8NWgC-Xr-7">
          <mxGeometry relative="1" as="geometry">
            <mxPoint x="336.00000000000205" y="499.0000000000001" as="sourcePoint" />
            <mxPoint x="513.9999999999995" y="499.0000000000001" as="targetPoint" />
          </mxGeometry>
        </mxCell>
        <mxCell id="HgFRqjjcvy6R8NWgC-Xr-19" value="&lt;font style=&quot;vertical-align: inherit&quot;&gt;&lt;font style=&quot;vertical-align: inherit&quot;&gt;&amp;lt;&amp;lt;extend&amp;gt;&amp;gt;&lt;/font&gt;&lt;/font&gt;" style="edgeLabel;resizable=0;html=1;align=center;verticalAlign=middle;" connectable="0" vertex="1" parent="HgFRqjjcvy6R8NWgC-Xr-18">
          <mxGeometry relative="1" as="geometry" />
        </mxCell>
        <mxCell id="HgFRqjjcvy6R8NWgC-Xr-22" value="&lt;font style=&quot;vertical-align: inherit&quot;&gt;&lt;font style=&quot;vertical-align: inherit&quot;&gt;待发货页面&lt;/font&gt;&lt;/font&gt;" style="ellipse;whiteSpace=wrap;html=1;" vertex="1" parent="1">
          <mxGeometry x="514" y="467" width="100" height="62" as="geometry" />
        </mxCell>
        <mxCell id="HgFRqjjcvy6R8NWgC-Xr-23" value="" style="endArrow=classic;html=1;entryX=1;entryY=0.5;entryDx=0;entryDy=0;" edge="1" parent="1" target="HgFRqjjcvy6R8NWgC-Xr-4">
          <mxGeometry width="50" height="50" relative="1" as="geometry">
            <mxPoint x="690" y="240" as="sourcePoint" />
            <mxPoint x="362" y="219.57999999999998" as="targetPoint" />
          </mxGeometry>
        </mxCell>
        <mxCell id="HgFRqjjcvy6R8NWgC-Xr-24" value="" style="endArrow=classic;html=1;entryX=0;entryY=0.5;entryDx=0;entryDy=0;" edge="1" parent="1" target="HgFRqjjcvy6R8NWgC-Xr-25">
          <mxGeometry width="50" height="50" relative="1" as="geometry">
            <mxPoint x="120" y="280" as="sourcePoint" />
            <mxPoint x="360" y="280" as="targetPoint" />
          </mxGeometry>
        </mxCell>
        <mxCell id="HgFRqjjcvy6R8NWgC-Xr-25" value="浏览商品" style="ellipse;whiteSpace=wrap;html=1;" vertex="1" parent="1">
          <mxGeometry x="341" y="250" width="104" height="60" as="geometry" />
        </mxCell>
        <mxCell id="HgFRqjjcvy6R8NWgC-Xr-27" value="" style="endArrow=classic;html=1;exitX=0.223;exitY=0.072;exitDx=0;exitDy=0;exitPerimeter=0;" edge="1" parent="1" source="HgFRqjjcvy6R8NWgC-Xr-6" target="HgFRqjjcvy6R8NWgC-Xr-25">
          <mxGeometry width="50" height="50" relative="1" as="geometry">
            <mxPoint x="330" y="350" as="sourcePoint" />
            <mxPoint x="380" y="300" as="targetPoint" />
          </mxGeometry>
        </mxCell>
        <mxCell id="HgFRqjjcvy6R8NWgC-Xr-30" value="增加商品数量" style="ellipse;whiteSpace=wrap;html=1;" vertex="1" parent="1">
          <mxGeometry x="570" y="330" width="90" height="60" as="geometry" />
        </mxCell>
        <mxCell id="HgFRqjjcvy6R8NWgC-Xr-32" value="删除商品数量" style="ellipse;whiteSpace=wrap;html=1;" vertex="1" parent="1">
          <mxGeometry x="540" y="399" width="90" height="60" as="geometry" />
        </mxCell>
        <mxCell id="HgFRqjjcvy6R8NWgC-Xr-34" value="" style="endArrow=classic;html=1;exitX=1;exitY=1;exitDx=0;exitDy=0;" edge="1" parent="1" source="HgFRqjjcvy6R8NWgC-Xr-6">
          <mxGeometry relative="1" as="geometry">
            <mxPoint x="400.00200000000007" y="360.004" as="sourcePoint" />
            <mxPoint x="540" y="420" as="targetPoint" />
          </mxGeometry>
        </mxCell>
        <mxCell id="HgFRqjjcvy6R8NWgC-Xr-35" value="&lt;font style=&quot;vertical-align: inherit&quot;&gt;&lt;font style=&quot;vertical-align: inherit&quot;&gt;&amp;lt;&amp;lt;extend&amp;gt;&amp;gt;&lt;/font&gt;&lt;/font&gt;" style="edgeLabel;resizable=0;html=1;align=center;verticalAlign=middle;" connectable="0" vertex="1" parent="HgFRqjjcvy6R8NWgC-Xr-34">
          <mxGeometry relative="1" as="geometry" />
        </mxCell>
        <mxCell id="HgFRqjjcvy6R8NWgC-Xr-36" value="" style="endArrow=classic;html=1;exitX=1;exitY=0.5;exitDx=0;exitDy=0;entryX=0.019;entryY=0.328;entryDx=0;entryDy=0;entryPerimeter=0;" edge="1" parent="1" source="HgFRqjjcvy6R8NWgC-Xr-6" target="HgFRqjjcvy6R8NWgC-Xr-30">
          <mxGeometry relative="1" as="geometry">
            <mxPoint x="359.62200000000007" y="447.014" as="sourcePoint" />
            <mxPoint x="540" y="350" as="targetPoint" />
          </mxGeometry>
        </mxCell>
        <mxCell id="HgFRqjjcvy6R8NWgC-Xr-37" value="&lt;font style=&quot;vertical-align: inherit&quot;&gt;&lt;font style=&quot;vertical-align: inherit&quot;&gt;&amp;lt;&amp;lt;extend&amp;gt;&amp;gt;&lt;/font&gt;&lt;/font&gt;" style="edgeLabel;resizable=0;html=1;align=center;verticalAlign=middle;" connectable="0" vertex="1" parent="HgFRqjjcvy6R8NWgC-Xr-36">
          <mxGeometry relative="1" as="geometry" />
        </mxCell>
        <mxCell id="HgFRqjjcvy6R8NWgC-Xr-38" value="退出" style="ellipse;whiteSpace=wrap;html=1;" vertex="1" parent="1">
          <mxGeometry x="240" y="480" width="110" height="60" as="geometry" />
        </mxCell>
        <mxCell id="HgFRqjjcvy6R8NWgC-Xr-39" value="" style="endArrow=classic;html=1;entryX=0.033;entryY=0.339;entryDx=0;entryDy=0;entryPerimeter=0;" edge="1" parent="1" target="HgFRqjjcvy6R8NWgC-Xr-38">
          <mxGeometry width="50" height="50" relative="1" as="geometry">
            <mxPoint x="100" y="320" as="sourcePoint" />
            <mxPoint x="380" y="470" as="targetPoint" />
          </mxGeometry>
        </mxCell>
        <mxCell id="HgFRqjjcvy6R8NWgC-Xr-40" value="" style="endArrow=classic;html=1;exitX=1;exitY=0.5;exitDx=0;exitDy=0;entryX=0;entryY=0.5;entryDx=0;entryDy=0;" edge="1" parent="1" source="HgFRqjjcvy6R8NWgC-Xr-25" target="HgFRqjjcvy6R8NWgC-Xr-15">
          <mxGeometry relative="1" as="geometry">
            <mxPoint x="349.62200000000007" y="437.014" as="sourcePoint" />
            <mxPoint x="524" y="280" as="targetPoint" />
          </mxGeometry>
        </mxCell>
        <mxCell id="HgFRqjjcvy6R8NWgC-Xr-41" value="&lt;font style=&quot;vertical-align: inherit&quot;&gt;&lt;font style=&quot;vertical-align: inherit&quot;&gt;&amp;lt;&amp;lt;extend&amp;gt;&amp;gt;&lt;/font&gt;&lt;/font&gt;" style="edgeLabel;resizable=0;html=1;align=center;verticalAlign=middle;" connectable="0" vertex="1" parent="HgFRqjjcvy6R8NWgC-Xr-40">
          <mxGeometry relative="1" as="geometry">
            <mxPoint x="-2" as="offset" />
          </mxGeometry>
        </mxCell>
        <mxCell id="HgFRqjjcvy6R8NWgC-Xr-42" value="&lt;font style=&quot;vertical-align: inherit&quot;&gt;&lt;font style=&quot;vertical-align: inherit&quot;&gt;&amp;lt;&amp;lt;extend&amp;gt;&amp;gt;&lt;/font&gt;&lt;/font&gt;" style="edgeLabel;resizable=0;html=1;align=center;verticalAlign=middle;" connectable="0" vertex="1" parent="1">
          <mxGeometry x="392.99999999999886" y="320" as="geometry" />
        </mxCell>
        <mxCell id="HgFRqjjcvy6R8NWgC-Xr-43" value="" style="endArrow=classic;html=1;exitX=0.236;exitY=0.067;exitDx=0;exitDy=0;entryX=0.969;entryY=0.328;entryDx=0;entryDy=0;exitPerimeter=0;entryPerimeter=0;" edge="1" parent="1" source="HgFRqjjcvy6R8NWgC-Xr-4" target="HgFRqjjcvy6R8NWgC-Xr-3">
          <mxGeometry relative="1" as="geometry">
            <mxPoint x="454.99999999999886" y="290" as="sourcePoint" />
            <mxPoint x="550" y="290" as="targetPoint" />
          </mxGeometry>
        </mxCell>
        <mxCell id="HgFRqjjcvy6R8NWgC-Xr-44" value="&lt;font style=&quot;vertical-align: inherit&quot;&gt;&lt;font style=&quot;vertical-align: inherit&quot;&gt;&amp;lt;&amp;lt;extend&amp;gt;&amp;gt;&lt;/font&gt;&lt;/font&gt;" style="edgeLabel;resizable=0;html=1;align=center;verticalAlign=middle;" connectable="0" vertex="1" parent="HgFRqjjcvy6R8NWgC-Xr-43">
          <mxGeometry relative="1" as="geometry">
            <mxPoint x="-2" as="offset" />
          </mxGeometry>
        </mxCell>
      </root>
    </mxGraphModel>
  </diagram>
</mxfile>
